<svg xmlns="http://www.w3.org/2000/svg" width="512" height="512" viewBox="0 0 512 512">
  <defs>
    <radialGradient id="bg" cx="50%" cy="30%" r="85%">
      <stop offset="0%" stop-color="#2c2552" />
      <stop offset="55%" stop-color="#17172e" />
      <stop offset="100%" stop-color="#0e0e1c" />
    </radialGradient>
    <linearGradient id="gold" x1="0" y1="0" x2="0.35" y2="1">
      <stop offset="0%" stop-color="#ffe488" />
      <stop offset="55%" stop-color="#ffd54a" />
      <stop offset="100%" stop-color="#ecae28" />
    </linearGradient>
    <filter id="glow" x="-30%" y="-30%" width="160%" height="160%">
      <feDropShadow dx="0" dy="6" stdDeviation="10" flood-color="#000000" flood-opacity="0.45" />
    </filter>
  </defs>
  <rect width="512" height="512" fill="url(#bg)" />
  <g filter="url(#glow)" transform="translate(136,141) scale(5.0)">
    <path fill="url(#gold)" d="M25.946 44.938c-.664.845-2.021.375-2.021-.698V33.937a2.26 2.26 0 0 0-2.262-2.262H10.287c-.92 0-1.456-1.04-.92-1.788l7.48-10.471c1.07-1.497 0-3.578-1.842-3.578H1.237c-.92 0-1.456-1.04-.92-1.788L10.013.474c.214-.297.556-.474.92-.474h28.894c.92 0 1.456 1.04.92 1.788l-7.48 10.471c-1.07 1.498 0 3.579 1.842 3.579h11.377c.943 0 1.473 1.088.89 1.83L25.947 44.94z" />
  </g>
</svg>
